{"title":"Thunderbirds Are Go S01E01 Ring of Fire: Part 1 720P WEB-DL","uid":11824290,"size":294660503,"categoryP":"video","categoryS":"hd___tv_shows","magnet":"?xt=urn:btih:999e0b20ee23ca7a71f293b721b93cc8ff7d961a&amp;dn=Thunderbirds+Are+Go+S01E01+Ring+of+Fire%3A+Part+1+720P+WEB-DL&amp;tr=udp%3A%2F%2Ftracker.openbittorrent.com%3A80&amp;tr=udp%3A%2F%2Fopen.demonii.com%3A1337&amp;tr=udp%3A%2F%2Ftracker.coppersurfer.tk%3A6969&amp;tr=udp%3A%2F%2Fexodus.desync.com%3A6969","seeders":3,"leechers":1,"uploader":"jmanwf","files":1,"time":1429415415,"description":"A powerful underwater seaquake turns a busy day for International Rescue into\na perilous one. Gordon's mission is to rescue a research team trapped in an\nundersea lab, but in doing so he discovers a chain of seismic destabilisers\npositioned along the bottom of the ocean floor. Lady Penelope is contacted\nto help the Thunderbirds find the person responsible.\n\n\nFormat                                   : MPEG-4\nFormat profile                           : Base Media\nCodec ID                                 : isom\nFile size                                : 281 MiB\nDuration                                 : 22mn 50s\nOverall bit rate mode                    : Variable\nOverall bit rate                         : 1 721 Kbps\nEncoded date                             : UTC 2015-04-08 22:01:45\nTagged date                              : UTC 2015-04-08 22:01:45\n\nVideo\nID                                       : 1\nFormat                                   : AVC\nFormat/Info                              : Advanced Video Codec\nFormat profile                           : &lt;a class=&quot;__cf_email__&quot; href=&quot;/cdn-cgi/l/email-protection&quot; data-cfemail=&quot;feb6979996beb2cad0cf&quot;&gt;[email&amp;#160;protected]&lt;/a&gt;&lt;script cf-hash='f9e31' type=&quot;text/javascript&quot;&gt;\n/* &lt;![CDATA[ */!function(){try{var t=&quot;currentScript&quot;in document?document.currentScript:function(){for(var t=document.getElementsByTagName(&quot;script&quot;),e=t.length;e--;)if(t[e].getAttribute(&quot;cf-hash&quot;))return t[e]}();if(t&amp;&amp;t.previousSibling){var e,r,n,i,c=t.previousSibling,a=c.getAttribute(&quot;data-cfemail&quot;);if(a){for(e=&quot;&quot;,r=parseInt(a.substr(0,2),16),n=2;a.length-n;n+=2)i=parseInt(a.substr(n,2),16)^r,e+=String.fromCharCode(i);e=document.createTextNode(e),c.parentNode.replaceChild(e,c)}}}catch(u){}}();/* ]]&gt; */&lt;/script&gt;\nFormat settings, CABAC                   : Yes\nFormat settings, ReFrames                : 5 frames\nCodec ID                                 : avc1\nCodec ID/Info                            : Advanced Video Coding\nDuration                                 : 22mn 50s\nBit rate                                 : 1 557 Kbps\nMaximum bit rate                         : 7 137 Kbps\nWidth                                    : 1 280 pixels\nHeight                                   : 720 pixels\nDisplay aspect ratio                     : 16:9\nFrame rate mode                          : Constant\nFrame rate                               : 25.000 fps\nColor space                              : YUV\nChroma subsampling                       : 4:2:0\nBit depth                                : 8 bits\nScan type                                : Progressive\nBits/(Pixel*Frame)                       : 0.068\nStream size                              : 254 MiB (90%)\nWriting library                          : x264 core 146 r2538 121396c\n\nEncoded date                             : UTC 2015-04-08 22:01:45\nTagged date                              : UTC 2015-04-08 22:02:01\nMatrix coefficients                      : BT.709\nColor range                              : Limited\n\nAudio\nID                                       : 2\nFormat                                   : AAC\nFormat/Info                              : Advanced Audio Codec\nFormat profile                           : LC\nCodec ID                                 : 40\nDuration                                 : 22mn 50s\nBit rate mode                            : Variable\nBit rate                                 : 160 Kbps\nMaximum bit rate                         : 181 Kbps\nChannel(s)                               : 2 channels\nChannel positions                        : Front: L R\nSampling rate                            : 48.0 KHz\nCompression mode                         : Lossy\nStream size                              : 26.1 MiB (9%)\nLanguage                                 : English\nEncoded date                             : UTC 2015-04-08 21:28:56\nTagged date                              : UTC 2015-04-08 22:02:01\n\n\n &lt;a href=&quot;\nhttps://itunes.apple.com/gb/tv-season/thunderbirds-are-go/id973447617&quot; rel=&quot;nofollow&quot; target=&quot;_NEW&quot;&gt;\nhttps://itunes.apple.com/gb/tv-season/thunderbirds-are-go/id973447617&lt;/a&gt;","torrent":{"xt":"urn:btih:999e0b20ee23ca7a71f293b721b93cc8ff7d961a","amp;dn":"Thunderbirds+Are+Go+S01E01+Ring+of+Fire%3A+Part+1+720P+WEB-DL","amp;tr":["udp%3A%2F%2Ftracker.openbittorrent.com%3A80","udp%3A%2F%2Fopen.demonii.com%3A1337","udp%3A%2F%2Ftracker.coppersurfer.tk%3A6969","udp%3A%2F%2Fexodus.desync.com%3A6969"],"infoHash":"999e0b20ee23ca7a71f293b721b93cc8ff7d961a","infoHashBuffer":{"type":"Buffer","data":[153,158,11,32,238,35,202,122,113,242,147,183,33,185,60,200,255,125,150,26]},"announce":[],"urlList":[]}}